<svg width="24" height="24" viewBox="0 0 24 24" fill="none" xmlns="http://www.w3.org/2000/svg">
<path d="M10 9C10.5523 9 11 8.55228 11 8C11 7.44772 10.5523 7 10 7C9.44772 7 9.00001 7.44772 9.00001 8C9.00001 8.55228 9.44772 9 10 9Z" fill="#2C91E4"/>
<path d="M15 8C15 8.55228 14.5523 9 14 9C13.4477 9 13 8.55228 13 8C13 7.44772 13.4477 7 14 7C14.5523 7 15 7.44772 15 8Z" fill="#2C91E4"/>
<path d="M8.4157 13.4702C8.67539 13.7929 9.14751 13.844 9.47021 13.5843C10.096 13.0807 10.9879 12.75 12 12.75C13.0121 12.75 13.904 13.0807 14.5298 13.5843C14.8525 13.844 15.3246 13.7929 15.5843 13.4702C15.844 13.1475 15.7929 12.6754 15.4702 12.4157C14.5605 11.6836 13.3311 11.25 12 11.25C10.6689 11.25 9.43955 11.6836 8.5298 12.4157C8.2071 12.6754 8.15602 13.1475 8.4157 13.4702Z" fill="#2C91E4"/>
<path fill-rule="evenodd" clip-rule="evenodd" d="M5.51763 7.7103C5.76471 4.26779 8.55531 1.5 12 1.5C15.4447 1.5 18.2353 4.26779 18.4824 7.7103L18.5464 8.23223L18.5485 8.25137L18.5494 8.26007C18.8614 11.5699 19.8534 15.5415 21.8913 19.5465C22.0952 19.9472 22.0065 20.4348 21.6746 20.7382C20.5588 21.7579 19.5455 22.4834 18.0108 22.4999C17.4955 22.5055 16.9921 22.3694 16.5487 22.2187C16.251 22.1175 15.92 21.9871 15.5965 21.8596C15.4483 21.8013 15.3015 21.7434 15.1604 21.6894C14.2104 21.3256 13.1915 21 12 21C10.8085 21 9.78964 21.3256 8.83958 21.6894C8.69847 21.7434 8.5519 21.8012 8.40376 21.8595C8.0802 21.987 7.749 22.1175 7.45128 22.2187C7.00796 22.3694 6.50448 22.5055 5.98922 22.4999C4.4545 22.4834 3.44121 21.7579 2.32539 20.7382C1.99348 20.4348 1.90484 19.9472 2.10875 19.5465C4.14662 15.5415 5.13857 11.5699 5.45061 8.26007C5.45149 8.25078 5.4525 8.2415 5.45363 8.23223L5.51763 7.7103ZM12 3.5C9.66614 3.5 7.67857 5.39841 7.5111 7.87353C7.50987 7.89164 7.50815 7.90971 7.50594 7.92772L7.44046 8.46185C7.12332 11.8083 6.16205 15.7524 4.23897 19.7508C4.92688 20.3052 5.39646 20.4934 6.0108 20.5001C6.18214 20.5019 6.42762 20.4542 6.80761 20.3251C7.06085 20.239 7.31561 20.1385 7.60996 20.0224L7.61131 20.0219C7.76899 19.9597 7.93803 19.893 8.12428 19.8217C9.14223 19.4318 10.4368 19 12 19C13.5632 19 14.8578 19.4318 15.8757 19.8217C16.0625 19.8932 16.232 19.9601 16.3901 20.0224C16.6844 20.1385 16.9392 20.239 17.1924 20.3251C17.5724 20.4542 17.8179 20.5019 17.9892 20.5001C18.6036 20.4934 19.0731 20.3052 19.761 19.7508C17.838 15.7524 16.8767 11.8083 16.5596 8.46183L16.4941 7.92772C16.4919 7.90971 16.4901 7.89164 16.4889 7.87353C16.3214 5.39841 14.3339 3.5 12 3.5Z" fill="#2C91E4"/>
</svg>
