<svg width="24" height="24" viewBox="0 0 24 24" fill="none" xmlns="http://www.w3.org/2000/svg">
<path d="M22.46 6C21.69 6.35 20.86 6.58 20 6.69C20.88 6.16 21.56 5.32 21.88 4.31C21.05 4.81 20.13 5.16 19.16 5.36C18.37 4.5 17.26 4 16 4C13.65 4 11.73 5.92 11.73 8.29C11.73 8.63 11.77 8.96 11.84 9.27C8.28001 9.09 5.11001 7.38 3.00001 4.79C2.63001 5.42 2.42001 6.16 2.42001 6.94C2.42001 8.43 3.17001 9.75 4.33001 10.5C3.62001 10.5 2.96001 10.3 2.38001 10C2.38001 10 2.38001 10 2.38001 10.03C2.38001 12.11 3.86001 13.85 5.82001 14.24C5.46001 14.34 5.08001 14.39 4.69001 14.39C4.42001 14.39 4.15001 14.36 3.89001 14.31C4.43001 16 6.00001 17.26 7.89001 17.29C6.43001 18.45 4.58001 19.13 2.56001 19.13C2.22001 19.13 1.88001 19.11 1.54001 19.07C3.44001 20.29 5.70001 21 8.12001 21C16 21 20.33 14.46 20.33 8.79C20.33 8.6 20.33 8.42 20.32 8.23C21.16 7.63 21.88 6.87 22.46 6Z" fill="#2C91E4"/>
</svg>
