<svg width="24" height="24" viewBox="0 0 24 24" fill="none" xmlns="http://www.w3.org/2000/svg">
<path fill-rule="evenodd" clip-rule="evenodd" d="M19 5H18V3C18 2.2 17.3333 2 17 2C16.6667 2 16 2.2 16 3V5H8V3C8 2.2 7.33333 2 7 2C6.66667 2 6 2.2 6 3V5H5C3.89 5 3.01 5.9 3.01 7L3 20C3 21.1 3.89 22 5 22H19C20.1 22 21 21.1 21 20V7C21 5.9 20.1 5 19 5ZM5 20H19V10H5V20Z" fill="#2C91E4"/>
<path d="M9 13C9 13.5523 8.55228 14 8 14C7.44772 14 7 13.5523 7 13C7 12.4477 7.44772 12 8 12C8.55228 12 9 12.4477 9 13Z" fill="#2C91E4"/>
<path d="M13 17C13 17.5523 12.5523 18 12 18C11.4477 18 11 17.5523 11 17C11 16.4477 11.4477 16 12 16C12.5523 16 13 16.4477 13 17Z" fill="#2C91E4"/>
<path d="M13 13C13 13.5523 12.5523 14 12 14C11.4477 14 11 13.5523 11 13C11 12.4477 11.4477 12 12 12C12.5523 12 13 12.4477 13 13Z" fill="#2C91E4"/>
<path d="M17 17C17 17.5523 16.5523 18 16 18C15.4477 18 15 17.5523 15 17C15 16.4477 15.4477 16 16 16C16.5523 16 17 16.4477 17 17Z" fill="#2C91E4"/>
</svg>
