<svg width="24" height="24" viewBox="0 0 24 24" fill="none" xmlns="http://www.w3.org/2000/svg">
<path fill-rule="evenodd" clip-rule="evenodd" d="M13.826 7.3456C13.2263 5.98831 13.2479 4.34595 13.91 3C13 3.23 12.16 3.75 11.46 4.32C9.15612 6.20664 8.11923 9.4014 8.84185 12.3297L13.826 7.3456ZM7.79548 13.3761C6.93584 11.9788 6.84481 10.1383 7.53 8.64C5.89 10 5 12.3 5.14 14.47C5.17578 14.9173 5.22757 15.3645 5.35978 15.8118L7.79548 13.3761ZM7.49993 19.3285C8.48094 20.1828 9.69621 20.7584 10.97 20.92C13.07 21.19 15.32 20.8 16.93 19.32C18.73 17.66 19.38 15 18.43 12.72L18.3 12.46C18.1 12 17.83 11.59 17.5 11.21L17.55 11.2C17.3455 10.9333 17.1094 10.6982 16.8768 10.4666C16.8478 10.4377 16.8188 10.4088 16.79 10.38C16.7305 10.3251 16.6702 10.2716 16.6092 10.2192L13.9567 12.8718C13.9696 12.8832 13.9826 12.8947 13.9956 12.9061C14.5767 13.4197 15.1373 13.9151 15.3 14.8C15.34 14.94 15.36 15.08 15.36 15.23C15.39 16.05 15.04 16.95 14.44 17.5H14.45C14.17 17.74 13.72 18 13.37 18.1C12.27 18.5 11.17 17.94 10.5 17.28C11.69 17 12.39 16.12 12.59 15.23C12.6646 14.8788 12.6468 14.5546 12.5922 14.2362L7.49993 19.3285Z" fill="#2C91E4"/>
<path d="M21 4.41636L19.5836 3L3 19.5836L4.41636 21L21 4.41636Z" fill="#2C91E4"/>
</svg>
